<svg width="42" height="49" viewBox="0 0 42 49" fill="none" xmlns="http://www.w3.org/2000/svg">
<g clip-path="url(#clip0)">
<path d="M21.0096 13.4942C15.0471 13.4942 10.2377 18.4037 10.2377 24.4905C10.2377 30.5772 15.0471 35.4867 21.0096 35.4867C26.9721 35.4867 31.7814 30.5772 31.7814 24.4905C31.7814 18.4037 26.9721 13.4942 21.0096 13.4942ZM21.0096 31.6395C17.1564 31.6395 14.0064 28.4334 14.0064 24.4905C14.0064 20.5475 17.1471 17.3414 21.0096 17.3414C24.8721 17.3414 28.0127 20.5475 28.0127 24.4905C28.0127 28.4334 24.8627 31.6395 21.0096 31.6395ZM34.7346 13.0444C34.7346 14.4703 33.6096 15.6092 32.2221 15.6092C30.8252 15.6092 29.7096 14.4608 29.7096 13.0444C29.7096 11.628 30.8346 10.4795 32.2221 10.4795C33.6096 10.4795 34.7346 11.628 34.7346 13.0444ZM41.8689 15.6475C41.7096 12.2117 40.9408 9.16838 38.4752 6.66096C36.0189 4.15354 33.0377 3.36877 29.6721 3.19651C26.2033 2.99553 15.8064 2.99553 12.3377 3.19651C8.98145 3.3592 6.0002 4.14397 3.53457 6.65139C1.06895 9.15881 0.30957 12.2022 0.14082 15.6379C-0.0560547 19.1789 -0.0560547 29.7924 0.14082 33.3334C0.300195 36.7692 1.06895 39.8125 3.53457 42.3199C6.0002 44.8274 8.97207 45.6121 12.3377 45.7844C15.8064 45.9854 26.2033 45.9854 29.6721 45.7844C33.0377 45.6217 36.0189 44.8369 38.4752 42.3199C40.9314 39.8125 41.7002 36.7692 41.8689 33.3334C42.0658 29.7924 42.0658 19.1885 41.8689 15.6475ZM37.3877 37.1328C36.6564 39.0086 35.2408 40.4537 33.3939 41.2098C30.6283 42.3295 24.0658 42.0711 21.0096 42.0711C17.9533 42.0711 11.3814 42.3199 8.62519 41.2098C6.78769 40.4633 5.37207 39.0182 4.63144 37.1328C3.53457 34.3096 3.7877 27.6104 3.7877 24.4905C3.7877 21.3705 3.54395 14.6617 4.63144 11.8481C5.3627 9.97229 6.77832 8.52717 8.62519 7.77112C11.3908 6.65139 17.9533 6.90979 21.0096 6.90979C24.0658 6.90979 30.6377 6.66096 33.3939 7.77112C35.2314 8.5176 36.6471 9.96272 37.3877 11.8481C38.4846 14.6713 38.2314 21.3705 38.2314 24.4905C38.2314 27.6104 38.4846 34.3192 37.3877 37.1328Z" fill="white"/>
</g>
<defs>
<clipPath id="clip0">
<rect width="42" height="49" fill="white"/>
</clipPath>
</defs>
</svg>
