<svg width="34" height="31" viewBox="0 0 34 31" fill="none" xmlns="http://www.w3.org/2000/svg">
<path fill-rule="evenodd" clip-rule="evenodd" d="M8.86412 1.43659C8.24698 0.0705141 7.59721 0.0431674 7.01007 0.0192665C6.52983 -0.00124347 5.98004 1.50366e-05 5.43113 1.50366e-05C4.88178 1.50366e-05 3.98909 0.205551 3.23418 1.02639C2.47882 1.84722 0.350098 3.83154 0.350098 7.8673C0.350098 11.9035 3.30285 15.8034 3.71442 16.3511C4.12643 16.8981 9.41435 25.4448 17.7889 28.7327C24.7489 31.4653 26.1652 30.9217 27.6759 30.785C29.1866 30.6483 32.5505 28.8011 33.2372 26.8855C33.9239 24.9704 33.9239 23.3288 33.7179 22.9856C33.5118 22.6438 32.9625 22.4387 32.1385 22.0285C31.3145 21.6183 27.2639 19.6336 26.5085 19.3601C25.7532 19.0866 25.2038 18.9499 24.6545 19.7712C24.1051 20.5916 22.527 22.4387 22.0463 22.9856C21.5657 23.5338 21.085 23.6022 20.261 23.192C19.4369 22.7805 16.7833 21.9152 13.6353 19.1207C11.186 16.9467 9.53235 14.2616 9.05167 13.4404C8.57099 12.62 9.00014 12.1756 9.41347 11.7666C9.7834 11.3992 10.2375 10.8091 10.6495 10.3301C11.0606 9.85107 11.198 9.50924 11.4726 8.96231C11.7473 8.4145 11.61 7.93556 11.404 7.52536C11.198 7.11516 9.59673 3.05857 8.86412 1.43659Z" fill="white"/>
</svg>
